<svg width="1200" height="260" viewBox="0 0 1200 260" xmlns="http://www.w3.org/2000/svg" font-family="'Segoe UI', Arial, sans-serif">
<defs>
<linearGradient id="edge" x1="0" x2="1"><stop offset="0%" stop-color="#E8121C"/><stop offset="100%" stop-color="#5C0910"/></linearGradient>
<linearGradient id="underline" x1="0" x2="1"><stop offset="0%" stop-color="#E8121C"/><stop offset="100%" stop-color="#E8121C" stop-opacity="0"/></linearGradient>
</defs>
<rect width="1200" height="260" fill="#090B0F"/>
<rect x="0" y="0" width="1200" height="3" fill="url(#edge)"/>
<circle cx="1040" cy="130" r="70" fill="none" stroke="#1B1F27" stroke-width="1.5" opacity="0.9"/>
<circle cx="1040" cy="130" r="100" fill="none" stroke="#1B1F27" stroke-width="1.5" opacity="0.7"/>
<circle cx="1040" cy="130" r="130" fill="none" stroke="#1B1F27" stroke-width="1.5" opacity="0.5"/>
<line x1="948.1" y1="221.9" x2="939.6" y2="230.4" stroke="#242832" stroke-width="2"/>
<line x1="916.4" y1="170.2" x2="904.9" y2="173.9" stroke="#242832" stroke-width="2"/>
<line x1="911.6" y1="109.7" x2="899.7" y2="107.8" stroke="#242832" stroke-width="2"/>
<line x1="934.8" y1="53.6" x2="925.1" y2="46.5" stroke="#242832" stroke-width="2"/>
<line x1="981.0" y1="14.2" x2="975.5" y2="3.5" stroke="#242832" stroke-width="2"/>
<line x1="1040.0" y1="0.0" x2="1040.0" y2="-12.0" stroke="#242832" stroke-width="2"/>
<line x1="1099.0" y1="14.2" x2="1104.5" y2="3.5" stroke="#242832" stroke-width="2"/>
<line x1="1145.2" y1="53.6" x2="1154.9" y2="46.5" stroke="#242832" stroke-width="2"/>
<line x1="1168.4" y1="109.7" x2="1180.3" y2="107.8" stroke="#242832" stroke-width="2"/>
<line x1="1163.6" y1="170.2" x2="1175.1" y2="173.9" stroke="#242832" stroke-width="2"/>
<line x1="1131.9" y1="221.9" x2="1140.4" y2="230.4" stroke="#242832" stroke-width="2"/>
<path d="M 900 190 L 930 160 L 955 205 L 985 150 L 1015 185 L 1045 140 L 1075 175 L 1105 120 L 1135 160" fill="none" stroke="#2FD3E0" stroke-width="2" opacity="0.35"/>
<circle cx="900" cy="190" r="2.5" fill="#2FD3E0" opacity="0.5"/>
<circle cx="955" cy="205" r="2.5" fill="#2FD3E0" opacity="0.5"/>
<circle cx="1015" cy="185" r="2.5" fill="#2FD3E0" opacity="0.5"/>
<circle cx="1075" cy="175" r="2.5" fill="#2FD3E0" opacity="0.5"/>
<circle cx="1135" cy="160" r="2.5" fill="#2FD3E0" opacity="0.5"/>
<rect x="60" y="56" width="8" height="8" fill="#fff"/>
<rect x="68" y="56" width="8" height="8" fill="#0a0a0a"/>
<rect x="76" y="56" width="8" height="8" fill="#fff"/>
<rect x="84" y="56" width="8" height="8" fill="#0a0a0a"/>
<rect x="92" y="56" width="8" height="8" fill="#fff"/>
<rect x="100" y="56" width="8" height="8" fill="#0a0a0a"/>
<rect x="60" y="64" width="8" height="8" fill="#0a0a0a"/>
<rect x="68" y="64" width="8" height="8" fill="#fff"/>
<rect x="76" y="64" width="8" height="8" fill="#0a0a0a"/>
<rect x="84" y="64" width="8" height="8" fill="#fff"/>
<rect x="92" y="64" width="8" height="8" fill="#0a0a0a"/>
<rect x="100" y="64" width="8" height="8" fill="#fff"/>
<rect x="60" y="72" width="8" height="8" fill="#fff"/>
<rect x="68" y="72" width="8" height="8" fill="#0a0a0a"/>
<rect x="76" y="72" width="8" height="8" fill="#fff"/>
<rect x="84" y="72" width="8" height="8" fill="#0a0a0a"/>
<rect x="92" y="72" width="8" height="8" fill="#fff"/>
<rect x="100" y="72" width="8" height="8" fill="#0a0a0a"/>
<rect x="60" y="80" width="8" height="8" fill="#0a0a0a"/>
<rect x="68" y="80" width="8" height="8" fill="#fff"/>
<rect x="76" y="80" width="8" height="8" fill="#0a0a0a"/>
<rect x="84" y="80" width="8" height="8" fill="#fff"/>
<rect x="92" y="80" width="8" height="8" fill="#0a0a0a"/>
<rect x="100" y="80" width="8" height="8" fill="#fff"/>
<rect x="60" y="56" width="48" height="32" fill="none" stroke="#242832" stroke-width="1"/>
<text x="140" y="122" font-size="58" font-weight="800" fill="#F2F4F8">HAMZAUL <tspan fill="#E8121C">RAHMAN</tspan></text>
<rect x="142" y="140" width="360" height="3" fill="url(#underline)"/>
<text x="140" y="172" font-family="'SF Mono', 'Consolas', 'Courier New', monospace" font-size="15" letter-spacing="3" fill="#2FD3E0">DATA ANALYST // POWER BI · PYTHON · SQL · DAX</text>
<text x="140" y="200" font-family="'Segoe UI', Arial, sans-serif" font-size="14" fill="#848B9C">B.Tech, Artificial Intelligence &amp; Data Science — turning raw data into decisions.</text>
<text x="1160" y="238" font-family="'SF Mono', 'Consolas', 'Courier New', monospace" font-size="11" letter-spacing="2" fill="#848B9C" text-anchor="end">TELEMETRY EDITION // PORTFOLIO</text>
</svg>